<?xml version="1.0" standalone="no"?>
<!DOCTYPE svg PUBLIC "-//W3C//DTD SVG 20010904//EN"
 "http://www.w3.org/TR/2001/REC-SVG-20010904/DTD/svg10.dtd">
<svg version="1.0" xmlns="http://www.w3.org/2000/svg"
 width="1920.000000pt" height="784.000000pt" viewBox="0 0 1920.000000 784.000000"
 preserveAspectRatio="xMidYMid meet">

<g transform="translate(0.000000,784.000000) scale(0.100000,-0.100000)"
fill="#000000" stroke="none">
<path d="M0 4235 l0 -3595 33 14 c624 272 1107 394 1642 415 530 21 894 -27
1990 -259 1144 -243 1724 -308 2625 -297 691 9 1291 71 1950 203 1160 232
2233 635 4035 1514 1444 705 1840 888 2510 1162 1458 595 2864 898 4171 898
l244 0 0 1770 0 1770 -9600 0 -9600 0 0 -3595z m1392 3334 c3 -24 37 -405 74
-846 38 -441 70 -800 72 -798 2 2 43 192 91 422 67 322 90 418 101 418 10 0
33 -50 69 -152 30 -84 57 -151 58 -149 2 2 34 100 72 217 45 142 72 214 81
214 14 0 23 -28 55 -178 l17 -77 434 2 435 3 42 95 c24 52 50 96 58 98 10 2
31 -46 74 -172 33 -96 62 -172 65 -170 3 3 50 256 105 561 95 527 115 610 129
541 3 -13 14 -135 26 -273 41 -497 110 -1301 116 -1355 5 -39 8 -49 14 -35 4
11 44 201 90 423 55 262 88 402 96 402 14 0 12 5 70 -160 25 -69 49 -129 54
-134 5 -5 20 29 36 83 17 55 33 91 41 91 7 0 13 -5 13 -11 0 -5 -4 -8 -9 -5
-5 4 -7 -4 -3 -16 3 -14 1 -19 -6 -14 -7 4 -10 2 -6 -7 5 -14 -42 -175 -55
-190 -13 -13 -26 13 -76 156 -27 75 -52 134 -55 130 -4 -5 -47 -201 -95 -438
-94 -457 -100 -484 -115 -469 -8 8 -115 1180 -146 1594 -5 63 -10 88 -15 75
-5 -11 -47 -240 -94 -510 -99 -572 -92 -535 -109 -535 -12 0 -84 187 -127 328
-7 23 -16 41 -21 40 -5 -2 -24 -37 -42 -78 l-33 -75 -459 0 -459 0 -24 100
c-13 55 -27 93 -29 85 -3 -8 -34 -103 -68 -210 -38 -119 -67 -196 -76 -198 -9
-2 -28 36 -57 120 -60 169 -61 171 -65 167 -2 -2 -46 -204 -96 -449 -51 -245
-96 -449 -101 -454 -6 -6 -12 -6 -18 0 -8 8 -37 325 -126 1379 -8 94 -17 188
-19 210 -3 22 -6 51 -6 65 -1 14 -3 21 -6 15 -4 -11 -184 -1020 -184 -1035 0
-6 -8 -10 -17 -10 -14 0 -32 40 -82 185 -35 102 -66 185 -70 185 -3 0 -23 -36
-43 -80 l-37 -80 -200 2 c-267 4 -276 22 -13 26 l193 2 46 100 c25 55 52 100
60 100 7 0 13 -1 13 -3 0 -2 89 -262 116 -336 2 -8 6 -12 9 -10 2 2 47 249
100 549 53 300 98 553 101 563 9 31 28 13 36 -34z m14245 -85 c7 -71 37 -424
68 -784 30 -360 59 -684 63 -720 7 -64 8 -61 91 340 46 223 87 415 92 427 5
13 14 20 21 18 7 -3 37 -74 67 -157 45 -125 56 -148 62 -127 66 213 131 409
138 413 17 11 29 -20 54 -133 14 -62 28 -115 30 -118 8 -7 851 -3 858 4 4 5
25 49 47 98 61 134 65 132 137 -80 l61 -175 99 561 c97 546 108 592 134 563 8
-8 126 -1341 138 -1546 8 -145 16 -154 37 -42 35 187 147 728 152 736 3 4 11
8 19 8 13 0 22 -20 85 -198 18 -51 36 -89 40 -85 5 4 36 96 70 203 34 107 66
199 71 205 18 18 36 -20 53 -113 28 -153 13 -142 193 -142 129 0 153 -2 153
-15 0 -13 -25 -15 -169 -15 -94 0 -172 4 -175 9 -3 5 -16 48 -29 95 l-23 86
-64 -206 c-84 -271 -77 -271 -175 1 l-29 79 -57 -274 c-142 -674 -136 -648
-158 -624 -11 11 -36 261 -101 1029 -28 325 -51 599 -53 610 -1 11 -42 -209
-92 -489 -49 -280 -95 -516 -102 -525 -10 -14 -13 -14 -26 -1 -8 8 -40 93 -72
188 -32 94 -61 172 -65 172 -3 0 -20 -33 -37 -72 l-31 -73 -463 0 -464 0 -20
87 c-11 48 -22 89 -25 91 -3 3 -34 -87 -70 -199 -49 -158 -68 -204 -80 -202
-9 2 -33 53 -65 141 -27 75 -52 137 -55 137 -3 0 -31 -127 -63 -283 -91 -437
-127 -601 -138 -611 -18 -19 -28 10 -33 89 -7 141 -126 1519 -134 1549 -5 20
-31 -107 -91 -445 -45 -261 -88 -496 -93 -522 -17 -84 -34 -60 -106 148 l-66
189 -39 -87 -40 -87 -104 0 c-62 0 -103 4 -103 10 0 12 0 11 104 16 43 2 81 6
85 9 3 4 24 48 47 98 24 54 46 92 55 92 9 0 34 -58 74 -172 33 -95 62 -169 66
-165 4 4 50 254 103 556 53 302 99 553 102 558 18 29 30 -9 41 -128z m-11624
-730 c8 -9 -11 -44 -24 -44 -6 0 -3 7 6 16 13 14 14 19 3 25 -7 5 -8 9 -2 9 6
0 14 -3 17 -6z m-28 -84 c1 -11 -4 -20 -12 -20 -15 0 -17 16 -3 25 6 4 7 12 4
18 -4 7 -3 9 1 4 5 -4 9 -16 10 -27z m10933 -48 c3 -10 -46 -13 -254 -11 -142
1 -265 4 -274 8 -8 3 68 8 170 11 296 8 353 7 358 -8z m-6786 -117 c-2 -14
-10 -25 -18 -25 -19 0 2 47 22 50 1 0 -1 -11 -4 -25z m-21 -35 c15 0 18 -6 16
-27 -2 -16 -7 -36 -11 -46 -5 -9 -6 -29 -3 -43 3 -17 -1 -28 -10 -31 -12 -5
-12 -7 -1 -14 10 -7 11 -9 0 -9 -8 0 -10 -5 -6 -12 4 -7 -7 0 -24 16 -37 34
-41 56 -11 56 15 0 19 -4 15 -16 -4 -10 -1 -14 6 -11 7 2 12 14 10 26 -2 12 2
29 8 37 11 12 8 19 -4 12 -2 -2 -13 5 -24 15 -13 12 -22 15 -27 8 -3 -6 0 -11
8 -11 8 0 20 -7 28 -16 11 -13 9 -14 -17 -8 -16 4 -30 11 -32 16 -2 4 -8 8
-13 8 -6 0 -7 -4 -4 -10 3 -5 0 -10 -8 -10 -11 0 -13 -7 -9 -22 5 -18 7 -19
10 -6 4 19 58 22 69 5 4 -6 0 -8 -10 -4 -9 3 -19 1 -23 -5 -4 -7 -10 -6 -16 3
-7 11 -9 11 -7 -1 3 -31 -1 -38 -21 -33 -11 3 -17 10 -13 16 3 6 1 7 -5 3 -15
-9 -3 -38 14 -32 8 3 14 0 15 -7 0 -9 2 -9 6 1 2 6 9 12 14 12 6 0 8 -4 5 -9
-4 -5 -1 -11 5 -13 7 -2 4 -10 -7 -18 -11 -9 -15 -10 -10 -2 5 8 0 12 -13 12
-12 0 -21 -5 -21 -11 0 -5 5 -7 10 -4 6 3 10 1 10 -4 0 -16 26 -13 44 5 15 14
17 14 22 -1 4 -10 1 -21 -6 -25 -14 -9 -5 -30 13 -30 9 0 9 2 1 8 -9 5 -8 11
2 20 12 11 13 10 11 -5 -5 -31 -24 -56 -36 -49 -6 4 -8 13 -4 19 5 8 2 8 -9 0
-8 -7 -19 -9 -23 -5 -5 4 -5 1 -1 -6 4 -7 12 -9 18 -6 7 5 9 2 6 -8 -5 -11 0
-14 18 -10 13 2 24 9 24 15 0 6 3 8 6 5 3 -4 -3 -19 -13 -34 -10 -16 -12 -25
-5 -21 6 5 12 4 12 -2 0 -5 -4 -12 -9 -16 -5 -3 -8 -17 -5 -30 3 -16 0 -25 -8
-25 -10 0 -10 -2 1 -9 9 -6 11 -16 5 -32 -4 -13 -7 -28 -6 -32 1 -4 -6 -4 -15
2 -15 7 -18 5 -18 -15 0 -27 5 -29 24 -11 11 10 13 9 7 -6 -3 -10 -6 -23 -6
-28 0 -5 -7 -9 -16 -9 -9 0 -12 5 -8 12 4 7 3 8 -4 4 -19 -11 -14 -26 8 -26
11 0 20 -5 20 -11 0 -5 -4 -7 -10 -4 -5 3 -10 1 -10 -6 0 -8 -6 -7 -18 4 -20
18 -63 19 -59 1 1 -7 -1 -13 -5 -13 -5 -1 -8 2 -9 7 0 4 -5 13 -11 20 -8 9 -5
12 11 12 11 0 21 5 21 10 0 6 5 10 11 10 5 0 8 -4 5 -8 -3 -5 1 -9 9 -9 21 0
19 10 -5 25 -11 7 -20 8 -20 3 0 -5 -7 -12 -16 -15 -8 -3 -12 -2 -9 4 3 6 -1
20 -9 32 -9 12 -16 18 -16 12 0 -5 5 -15 11 -21 9 -9 8 -18 -5 -38 -17 -26
-15 -62 3 -51 5 4 11 0 14 -6 3 -9 10 -7 26 7 19 16 24 17 31 5 7 -10 10 -11
10 -2 0 9 4 10 18 1 23 -15 26 -53 5 -70 -14 -12 -16 -12 -9 0 7 10 3 12 -14
6 -14 -5 -20 -3 -16 3 4 6 -2 8 -14 5 -11 -3 -20 -10 -20 -16 0 -6 3 -7 7 -4
6 7 32 -21 33 -35 0 -11 -23 -5 -32 7 -4 6 -8 2 -8 -7 0 -10 5 -18 11 -18 5 0
8 -4 5 -8 -2 -4 6 -8 19 -8 17 0 21 3 15 11 -6 7 -7 15 -3 18 3 4 0 14 -8 24
-12 15 -12 16 4 10 10 -4 22 -7 26 -7 7 0 7 -65 1 -80 -1 -3 -2 -9 -1 -14 1
-5 -6 -3 -16 5 -17 13 -17 13 -2 -11 14 -21 14 -32 4 -72 -6 -26 -10 -50 -7
-53 5 -5 -15 -9 -31 -6 -4 1 -15 -5 -23 -14 -14 -13 -14 -15 0 -15 9 0 16 4
16 8 0 4 9 8 20 9 15 1 19 -3 16 -20 -3 -12 -5 -28 -5 -35 -1 -7 -5 -10 -11
-7 -5 3 -10 2 -10 -4 0 -5 5 -11 11 -13 7 -2 7 -12 0 -31 -6 -15 -8 -34 -4
-44 4 -10 2 -14 -4 -10 -6 4 -9 -7 -6 -30 4 -37 4 -37 -17 -18 -11 10 -20 15
-20 12 0 -17 3 -22 11 -20 8 3 13 -11 10 -29 0 -5 4 -8 9 -8 6 0 5 -6 -2 -14
-7 -8 -17 -12 -22 -9 -4 3 -5 -5 -1 -17 6 -19 4 -22 -11 -16 -18 6 -18 5 -2
-7 10 -8 14 -18 10 -22 -4 -5 -1 -5 6 -1 7 4 10 11 8 15 -3 4 0 13 5 21 7 11
8 1 5 -30 -4 -25 -10 -46 -14 -48 -4 -1 -6 -18 -4 -37 2 -19 1 -43 -3 -52 -5
-10 -7 -26 -6 -35 1 -10 -2 -18 -6 -18 -5 0 -10 11 -11 25 -1 14 3 25 8 25 6
0 10 4 10 9 0 5 -15 4 -35 -2 -21 -6 -35 -16 -34 -26 0 -11 2 -12 6 -3 2 6 12
12 21 12 15 0 15 -2 2 -10 -13 -8 -12 -10 3 -10 14 0 16 -4 8 -19 -9 -16 -8
-18 10 -14 13 4 19 1 17 -8 -4 -19 -31 -38 -43 -31 -5 3 -4 -2 3 -11 8 -9 16
-31 19 -49 4 -27 2 -31 -8 -20 -7 6 -17 12 -23 12 -5 0 0 -8 10 -17 19 -18 22
-63 3 -63 -5 0 -9 -5 -9 -11 0 -5 4 -8 9 -5 9 6 9 -6 -4 -104 -4 -30 -7 -63
-7 -72 0 -10 -6 -18 -14 -18 -8 0 -14 6 -14 13 0 7 -9 18 -21 25 -12 8 -18 19
-15 28 3 9 1 12 -4 9 -6 -3 -10 -1 -10 4 0 6 7 11 15 11 10 0 15 10 14 33 0
27 -2 29 -9 12 -6 -14 -9 -15 -10 -5 -1 8 -6 2 -12 -13 -9 -26 -11 -27 -23
-10 -7 10 -14 23 -16 28 -1 6 -11 19 -21 29 -28 31 -104 192 -137 291 -62 187
-77 447 -37 633 51 236 172 464 326 617 41 41 60 54 60 42 0 -15 2 -16 14 -5
7 7 11 18 9 25 -6 15 35 56 47 48 6 -4 10 1 10 9 0 8 9 18 20 21 11 3 21 12
21 18 1 7 3 4 6 -5 2 -10 13 -18 24 -18z m-181 -1500 c0 -5 -2 -10 -4 -10 -3
0 -8 5 -11 10 -3 6 -1 10 4 10 6 0 11 -4 11 -10z m-6836 -754 c-2 -14 0 -27 6
-31 6 -3 7 1 4 10 -4 9 -3 15 2 14 21 -4 35 2 29 11 -4 6 -11 8 -16 5 -5 -4
-9 -2 -9 3 0 5 14 9 31 10 16 0 29 -3 27 -7 -6 -15 -86 -81 -97 -81 -7 0 -9
-4 -6 -10 3 -5 1 -10 -5 -10 -6 0 -10 6 -8 14 3 14 0 16 -24 16 -9 0 -9 -3 0
-12 18 -18 15 -35 -10 -57 -23 -22 -46 -18 -27 5 6 8 8 14 4 14 -4 0 -2 7 5
15 9 10 9 15 1 15 -6 0 -11 -4 -11 -9 0 -5 -10 -11 -22 -14 -17 -5 -19 -9 -10
-20 7 -8 8 -18 4 -22 -4 -5 -1 -5 6 -1 6 4 12 3 12 -2 0 -5 -9 -12 -20 -15
-13 -3 -18 -10 -14 -21 6 -14 -5 -21 -28 -17 -5 0 -8 -4 -8 -9 0 -12 -54 -70
-64 -70 -4 0 -19 -14 -33 -30 -13 -17 -30 -27 -35 -23 -7 3 -8 1 -4 -6 4 -6 0
-14 -11 -18 -10 -4 -26 -16 -36 -28 -10 -11 -16 -14 -12 -7 13 25 -4 11 -23
-20 l-21 -32 4 59 c12 206 197 390 407 404 12 1 16 -5 12 -23z m-104 -110 c0
-11 -19 -15 -25 -6 -3 5 1 10 9 10 9 0 16 -2 16 -4z m1769 -1789 c-9 -7 -15
-20 -13 -29 1 -10 -1 -18 -6 -18 -4 0 -11 -7 -14 -16 -4 -10 -2 -13 6 -8 8 5
9 2 5 -10 -4 -10 -7 -23 -7 -29 0 -7 -4 -6 -10 3 -11 17 -13 5 -12 -58 0 -26
-3 -31 -13 -22 -39 32 -18 129 37 175 16 14 33 25 36 25 4 0 0 -6 -9 -13z"/>
<path d="M8060 6461 c0 -6 4 -13 10 -16 6 -3 7 1 4 9 -7 18 -14 21 -14 7z"/>
<path d="M7948 6285 c-2 -19 0 -35 4 -35 4 0 8 15 8 33 0 25 3 29 11 17 9 -12
10 -12 7 -1 -8 29 -26 21 -30 -14z"/>
<path d="M8030 6245 c-8 -9 -8 -15 -2 -15 12 0 26 19 19 26 -2 2 -10 -2 -17
-11z"/>
<path d="M7964 6239 c-4 -7 -1 -10 7 -7 8 3 19 -2 24 -9 9 -12 11 -10 12 6 2
23 -30 30 -43 10z"/>
<path d="M7965 6210 c3 -5 8 -10 11 -10 2 0 4 5 4 10 0 6 -5 10 -11 10 -5 0
-7 -4 -4 -10z"/>
<path d="M7998 6178 c-19 -19 -13 -24 11 -9 7 5 12 13 10 18 -2 5 -12 1 -21
-9z"/>
<path d="M8037 6155 c3 -8 9 -12 14 -9 12 7 11 11 -5 17 -10 4 -13 1 -9 -8z"/>
<path d="M7932 6136 c3 -14 1 -26 -3 -26 -5 0 -9 -4 -9 -9 0 -4 12 -7 28 -5
25 2 26 2 9 -11 -11 -7 -24 -12 -30 -11 -7 2 -9 1 -5 -1 5 -3 5 -16 2 -30 -5
-18 -4 -24 5 -19 6 4 9 12 6 17 -4 5 -1 9 5 9 6 0 9 4 6 9 -3 4 5 13 19 19 19
9 23 17 19 39 -6 32 -3 29 -33 38 -22 7 -23 5 -19 -19z m38 -11 c14 -16 10
-18 -14 -9 -9 3 -16 10 -16 15 0 14 16 11 30 -6z"/>
<path d="M8006 6135 c-4 -11 2 -15 27 -15 l32 -1 -25 -14 c-14 -8 -21 -14 -16
-15 11 0 -14 -30 -26 -30 -5 0 -6 6 -2 13 5 8 2 8 -9 -2 -17 -14 -24 -26 -9
-17 4 2 14 1 22 -5 12 -7 11 -9 -5 -10 -11 -1 -23 -1 -27 0 -5 0 -8 -10 -8
-24 0 -14 5 -25 10 -25 6 0 10 7 10 15 0 8 9 19 20 25 11 6 19 14 17 18 -4 13
31 54 41 48 6 -3 9 2 8 11 -2 10 -13 19 -25 21 -12 2 -19 8 -16 13 4 5 2 9 -3
9 -6 0 -12 -7 -16 -15z"/>
<path d="M8036 6051 c-4 -5 3 -7 14 -4 23 6 26 13 6 13 -8 0 -17 -4 -20 -9z"/>
<path d="M8004 6012 c-9 -5 -8 -11 2 -20 12 -11 14 -9 14 8 0 22 0 23 -16 12z"/>
<path d="M7916 5867 c23 -21 25 -24 8 -23 -27 1 -33 -16 -7 -20 15 -3 24 3 28
16 4 11 11 18 16 15 5 -4 9 -1 9 5 0 7 -7 9 -16 6 -8 -3 -22 1 -30 9 -9 8 -20
15 -25 15 -6 0 2 -11 17 -23z"/>
<path d="M8016 5861 c-3 -5 1 -11 9 -14 9 -4 12 -1 8 9 -6 16 -10 17 -17 5z"/>
<path d="M7881 5807 c2 -1 13 -9 24 -17 19 -14 19 -14 6 3 -7 9 -18 17 -24 17
-6 0 -8 -1 -6 -3z"/>
<path d="M7926 5774 c-8 -20 -4 -25 11 -16 7 4 9 13 4 21 -6 10 -10 9 -15 -5z"/>
<path d="M7876 5765 c4 -8 11 -15 16 -15 6 0 5 6 -2 15 -7 8 -14 15 -16 15 -2
0 -1 -7 2 -15z"/>
<path d="M7884 5723 c3 -7 1 -13 -4 -13 -6 0 -10 -8 -10 -17 1 -16 2 -16 12 2
11 19 11 19 18 0 6 -18 7 -17 12 3 4 12 2 20 -3 16 -5 -3 -9 -1 -9 5 0 5 6 11
13 14 6 3 2 4 -11 4 -14 -1 -21 -6 -18 -14z"/>
<path d="M7949 5730 c-1 -3 -1 -9 0 -13 8 -47 7 -67 -7 -72 -8 -3 -12 -8 -9
-12 12 -11 36 18 30 35 -6 15 -5 16 13 2 17 -14 18 -14 6 2 -8 10 -9 19 -3 22
5 4 12 2 16 -4 3 -5 11 -10 16 -10 6 0 4 7 -5 15 -8 9 -22 12 -32 8 -12 -4
-15 -2 -12 8 3 8 11 13 17 12 6 -2 11 1 11 6 0 10 -39 11 -41 1z"/>
<path d="M7920 5691 c0 -5 -3 -18 -7 -28 -6 -17 -6 -17 10 -1 19 18 22 38 7
38 -5 0 -10 -4 -10 -9z"/>
<path d="M7868 5663 c6 -2 18 -2 25 0 6 3 1 5 -13 5 -14 0 -19 -2 -12 -5z"/>
<path d="M7996 5653 c-6 -14 -5 -15 5 -6 7 7 10 15 7 18 -3 3 -9 -2 -12 -12z"/>
<path d="M7874 5631 c3 -5 -1 -11 -9 -15 -8 -3 -15 -10 -15 -16 0 -6 7 -4 16
4 8 9 22 16 29 16 25 0 24 16 -1 18 -14 1 -23 -2 -20 -7z"/>
<path d="M7963 5623 c-3 -10 -13 -27 -22 -38 -16 -20 -16 -20 5 -2 12 10 27
17 34 15 7 -2 15 4 17 12 4 12 3 12 -5 1 -11 -15 -27 2 -17 19 3 6 4 10 0 10
-3 0 -8 -8 -12 -17z"/>
<path d="M7915 5610 c-3 -5 -1 -10 4 -10 6 0 11 5 11 10 0 6 -2 10 -4 10 -3 0
-8 -4 -11 -10z"/>
<path d="M7886 5601 c-3 -5 1 -11 9 -14 9 -4 12 -1 8 9 -6 16 -10 17 -17 5z"/>
<path d="M7897 5552 c6 -15 5 -16 -13 -2 -13 10 -15 10 -7 1 9 -11 9 -20 -3
-42 -8 -16 -11 -29 -8 -29 4 0 0 -8 -10 -19 -15 -16 -15 -20 -1 -31 8 -7 12
-17 8 -23 -4 -6 -1 -7 6 -3 9 6 8 13 -5 27 -15 17 -13 24 9 20 4 0 6 5 5 11
-2 7 7 14 20 16 12 2 22 -2 22 -8 0 -6 5 -8 12 -4 7 4 8 3 4 -5 -4 -6 -11 -9
-15 -7 -4 3 -13 1 -21 -5 -10 -6 -11 -9 -2 -9 6 0 12 -7 12 -16 0 -8 -4 -12
-10 -9 -6 4 -7 -1 -3 -12 6 -14 9 -13 19 12 11 25 19 27 16 4 -1 -4 8 -5 19
-2 18 5 19 6 2 19 -17 12 -16 13 5 9 18 -3 22 -1 18 11 -3 9 -6 23 -7 32 0 11
-2 12 -6 4 -2 -6 -9 -10 -14 -6 -14 8 -11 24 5 24 16 0 41 28 33 37 -4 3 -13
1 -20 -5 -8 -7 -18 -8 -22 -4 -5 4 -5 2 -2 -4 8 -15 -18 -37 -45 -39 -20 -2
-20 -1 -3 12 13 8 14 13 5 13 -10 0 -9 5 4 19 15 16 15 19 2 24 -11 4 -13 1
-9 -11z"/>
<path d="M7846 5524 c-8 -22 -8 -39 2 -30 4 4 7 11 7 14 0 4 4 13 8 20 5 6 4
12 -1 12 -6 0 -13 -7 -16 -16z"/>
<path d="M7832 5410 c3 -8 1 -24 -4 -35 -8 -18 -8 -19 5 -3 8 10 18 14 23 10
4 -4 2 2 -6 13 -21 30 -23 31 -18 15z"/>
<path d="M7845 5361 c-3 -5 -2 -12 3 -15 5 -3 9 1 9 9 0 17 -3 19 -12 6z"/>
<path d="M7873 5353 c4 -3 2 -12 -5 -20 -6 -7 -8 -16 -5 -20 4 -3 -1 -12 -11
-20 -15 -13 -15 -13 5 -4 29 14 30 14 36 -9 6 -24 -8 -36 -17 -14 -3 8 -10 12
-16 9 -15 -9 -12 -25 5 -25 8 0 15 -8 16 -17 0 -11 3 -13 6 -5 2 6 9 10 14 7
4 -3 8 10 7 30 -1 19 -6 35 -11 35 -5 0 -4 7 3 15 6 8 9 18 6 24 -3 5 0 12 6
14 7 3 0 6 -16 6 -16 1 -26 -2 -23 -6z m17 -33 c0 -5 -4 -10 -10 -10 -5 0 -10
5 -10 10 0 6 5 10 10 10 6 0 10 -4 10 -10z"/>
<path d="M7930 5309 c-7 -11 -9 -23 -6 -27 3 -3 6 0 6 6 0 6 7 18 16 26 8 9
11 16 5 16 -6 0 -15 -9 -21 -21z"/>
<path d="M7817 5303 c-2 -5 -5 -25 -6 -45 -1 -31 2 -38 16 -38 10 0 24 4 31 9
10 6 9 10 -7 14 -12 3 -19 1 -15 -4 3 -5 0 -9 -6 -9 -7 0 -9 15 -6 40 4 38 2
49 -7 33z"/>
<path d="M7845 5210 c-4 -6 -1 -10 4 -10 6 0 11 -12 11 -27 l0 -26 24 22 c21
20 24 20 30 5 8 -20 5 -23 -23 -29 -29 -5 -52 4 -45 19 3 6 -4 1 -15 -12 -11
-13 -25 -21 -31 -17 -5 3 -10 -2 -10 -11 0 -10 3 -14 7 -11 3 4 13 1 21 -6 13
-10 15 -9 10 4 -3 9 -2 22 3 30 7 11 9 11 9 1 0 -7 4 -11 9 -7 15 9 24 -14 12
-29 -9 -11 -5 -11 23 -2 19 6 34 13 34 16 0 3 0 12 2 20 1 11 4 9 11 -5 7 -15
7 -11 3 14 -4 23 -2 36 7 43 11 7 9 8 -6 6 -11 -1 -26 1 -33 5 -8 5 -11 4 -10
-4 2 -6 -3 -14 -11 -17 -10 -3 -12 0 -8 11 6 17 -19 32 -28 17z"/>
<path d="M7803 5193 c0 -7 4 -13 8 -13 4 0 9 6 12 13 3 8 0 14 -7 14 -7 0 -13
-6 -13 -14z"/>
<path d="M7790 5086 c0 -8 -3 -21 -6 -29 -3 -9 3 -16 18 -20 20 -5 21 -5 6 7
-11 8 -14 17 -7 27 12 19 11 29 -1 29 -5 0 -10 -6 -10 -14z"/>
<path d="M7820 5062 c0 -6 11 -19 26 -28 14 -9 23 -23 20 -30 -3 -8 -1 -14 4
-14 11 0 12 6 4 37 -4 13 -11 20 -17 16 -5 -3 -16 2 -24 12 -7 11 -13 14 -13
7z"/>
<path d="M7803 5013 c4 -6 -2 -18 -13 -26 -17 -12 -18 -16 -6 -26 9 -8 16 -8
20 -2 4 6 14 8 24 5 14 -5 13 -2 -3 11 -20 17 -20 17 1 11 14 -4 21 -2 21 8 0
9 -4 13 -9 10 -5 -3 -16 0 -25 8 -10 8 -14 8 -10 1z"/>
<path d="M7869 4973 c-1 -5 -2 -12 -4 -18 -1 -5 -3 -16 -3 -23 -1 -7 -7 -10
-12 -7 -6 4 -9 1 -8 -6 2 -7 -5 -15 -14 -17 -12 -2 -18 3 -18 13 0 9 5 13 10
10 6 -3 10 2 10 11 0 15 -3 14 -24 -5 -15 -14 -30 -20 -38 -16 -10 6 -10 5 -1
-5 6 -7 9 -18 7 -25 -3 -7 0 -16 7 -21 7 -4 10 -3 6 3 -4 6 -1 13 7 16 20 8
27 -3 15 -24 -8 -16 -13 -17 -32 -7 -21 11 -21 10 -7 -7 13 -17 13 -18 -1 -13
-9 4 -16 1 -16 -7 0 -7 8 -10 21 -7 17 4 19 3 10 -9 -6 -8 -11 -21 -11 -31 0
-15 2 -15 24 -1 12 8 20 19 17 24 -3 5 2 9 11 9 10 0 14 -5 9 -12 -5 -10 -4
-10 6 -1 7 6 20 9 29 6 13 -4 13 -3 2 5 -11 8 -11 10 0 15 12 4 12 7 0 18 -9
9 -11 9 -7 2 4 -7 2 -13 -3 -13 -6 0 -11 7 -11 15 0 8 -4 15 -9 15 -5 0 -7 -9
-4 -19 4 -16 1 -19 -16 -14 -16 4 -20 1 -16 -16 2 -12 0 -21 -6 -21 -13 0 -6
31 13 59 10 13 14 29 11 35 -4 6 1 5 11 -3 9 -8 16 -10 15 -5 -4 21 2 26 16
14 11 -9 13 -15 5 -20 -8 -5 -7 -9 4 -13 12 -5 15 0 14 18 -1 14 -9 27 -18 30
-13 6 -12 9 4 21 11 8 16 14 10 14 -5 0 -2 5 6 10 13 8 12 10 -3 10 -10 0 -15
5 -12 10 3 6 4 10 1 10 -3 0 -7 -3 -7 -7z"/>
<path d="M7853 4777 c0 -8 6 -14 14 -13 18 3 18 20 0 24 -7 2 -14 -4 -14 -11z"/>
<path d="M7845 4709 c-4 -6 -5 -12 -2 -15 2 -3 7 2 10 11 7 17 1 20 -8 4z"/>
<path d="M1065 4170 c-3 -5 -1 -10 4 -10 6 0 11 5 11 10 0 6 -2 10 -4 10 -3 0
-8 -4 -11 -10z"/>
<path d="M1016 4123 c-6 -14 -5 -15 5 -6 7 7 10 15 7 18 -3 3 -9 -2 -12 -12z"/>
<path d="M925 4079 c-11 -16 -1 -19 13 -3 7 8 8 14 3 14 -5 0 -13 -5 -16 -11z"/>
<path d="M893 4042 c-7 -12 -8 -24 -2 -33 6 -10 9 -8 9 10 0 17 4 22 16 17 14
-5 15 -4 4 9 -15 18 -13 19 -27 -3z"/>
<path d="M857 4023 c-4 -3 -7 -13 -7 -21 0 -18 13 -7 16 13 2 17 1 18 -9 8z"/>
<path d="M850 3981 c-19 -5 -21 -8 -10 -13 9 -3 24 0 35 8 20 15 15 16 -25 5z"/>
<path d="M774 3948 c-5 -7 -3 -8 6 -3 10 6 12 4 7 -8 -3 -10 -2 -17 3 -17 6 0
10 5 10 11 0 5 5 7 10 4 6 -3 10 -4 10 -1 0 3 -9 10 -19 16 -14 7 -22 7 -27
-2z"/>
<path d="M740 3912 c0 -4 12 -9 28 -10 21 -1 23 0 12 8 -18 12 -40 13 -40 2z"/>
<path d="M708 3869 c-10 -5 -18 -15 -18 -22 0 -8 3 -7 9 2 5 7 13 11 18 8 5
-3 10 0 10 8 0 8 -1 15 -1 15 -1 0 -9 -5 -18 -11z"/>
</g>
</svg>
